{
	"asset":{
		"generator":"Khronos glTF Blender I/O v4.3.47",
		"version":"2.0"
	},
	"scene":0,
	"scenes":[
		{
			"name":"Scene",
			"nodes":[
				0,
				1,
				2,
				3
			]
		}
	],
	"nodes":[
		{
			"mesh":0,
			"name":"Circle"
		},
		{
			"mesh":1,
			"name":"Plane",
			"scale":[
				1,
				1,
				1.5
			],
			"translation":[
				48.159645080566406,
				4.674953460693359,
				-35.66370391845703
			]
		},
		{
			"mesh":2,
			"name":"Plane.001",
			"rotation":[
				0,
				-0.5459102392196655,
				0,
				0.837843656539917
			],
			"scale":[
				1,
				1,
				1.5000001192092896
			],
			"translation":[
				52.79671859741211,
				7.0510406494140625,
				28.184255599975586
			]
		},
		{
			"mesh":3,
			"name":"Plane.002",
			"rotation":[
				-0.7017313838005066,
				-0.48012757301330566,
				-0.07209576666355133,
				0.5213950872421265
			],
			"scale":[
				1,
				1,
				1.5000001192092896
			],
			"translation":[
				-40.01539611816406,
				5.310760974884033,
				-44.10673904418945
			]
		}
	],
	"meshes":[
		{
			"name":"Circle.001",
			"primitives":[
				{
					"attributes":{
						"POSITION":0,
						"NORMAL":1,
						"TEXCOORD_0":2
					},
					"indices":3
				}
			]
		},
		{
			"name":"Plane",
			"primitives":[
				{
					"attributes":{
						"POSITION":4,
						"NORMAL":5,
						"TEXCOORD_0":6
					},
					"indices":7
				}
			]
		},
		{
			"name":"Plane.001",
			"primitives":[
				{
					"attributes":{
						"POSITION":8,
						"NORMAL":9,
						"TEXCOORD_0":10
					},
					"indices":7
				}
			]
		},
		{
			"name":"Plane.002",
			"primitives":[
				{
					"attributes":{
						"POSITION":11,
						"NORMAL":12,
						"TEXCOORD_0":13
					},
					"indices":7
				}
			]
		}
	],
	"accessors":[
		{
			"bufferView":0,
			"componentType":5126,
			"count":320,
			"max":[
				60,
				10,
				60
			],
			"min":[
				-60,
				0,
				-60
			],
			"type":"VEC3"
		},
		{
			"bufferView":1,
			"componentType":5126,
			"count":320,
			"type":"VEC3"
		},
		{
			"bufferView":2,
			"componentType":5126,
			"count":320,
			"type":"VEC2"
		},
		{
			"bufferView":3,
			"componentType":5123,
			"count":570,
			"type":"SCALAR"
		},
		{
			"bufferView":4,
			"componentType":5126,
			"count":24,
			"max":[
				0.8929951786994934,
				2.25,
				0.9296313524246216
			],
			"min":[
				-1.1483808755874634,
				-2.25,
				-0.8034813404083252
			],
			"type":"VEC3"
		},
		{
			"bufferView":5,
			"componentType":5126,
			"count":24,
			"type":"VEC3"
		},
		{
			"bufferView":6,
			"componentType":5126,
			"count":24,
			"type":"VEC2"
		},
		{
			"bufferView":7,
			"componentType":5123,
			"count":36,
			"type":"SCALAR"
		},
		{
			"bufferView":8,
			"componentType":5126,
			"count":24,
			"max":[
				0.8929951786994934,
				2.25,
				0.9296313524246216
			],
			"min":[
				-1.1483808755874634,
				-2.25,
				-0.8034813404083252
			],
			"type":"VEC3"
		},
		{
			"bufferView":9,
			"componentType":5126,
			"count":24,
			"type":"VEC3"
		},
		{
			"bufferView":10,
			"componentType":5126,
			"count":24,
			"type":"VEC2"
		},
		{
			"bufferView":11,
			"componentType":5126,
			"count":24,
			"max":[
				0.8929951786994934,
				2.25,
				0.9296313524246216
			],
			"min":[
				-1.1483808755874634,
				-2.25,
				-0.8034813404083252
			],
			"type":"VEC3"
		},
		{
			"bufferView":12,
			"componentType":5126,
			"count":24,
			"type":"VEC3"
		},
		{
			"bufferView":13,
			"componentType":5126,
			"count":24,
			"type":"VEC2"
		}
	],
	"bufferViews":[
		{
			"buffer":0,
			"byteLength":3840,
			"byteOffset":0,
			"target":34962
		},
		{
			"buffer":0,
			"byteLength":3840,
			"byteOffset":3840,
			"target":34962
		},
		{
			"buffer":0,
			"byteLength":2560,
			"byteOffset":7680,
			"target":34962
		},
		{
			"buffer":0,
			"byteLength":1140,
			"byteOffset":10240,
			"target":34963
		},
		{
			"buffer":0,
			"byteLength":288,
			"byteOffset":11380,
			"target":34962
		},
		{
			"buffer":0,
			"byteLength":288,
			"byteOffset":11668,
			"target":34962
		},
		{
			"buffer":0,
			"byteLength":192,
			"byteOffset":11956,
			"target":34962
		},
		{
			"buffer":0,
			"byteLength":72,
			"byteOffset":12148,
			"target":34963
		},
		{
			"buffer":0,
			"byteLength":288,
			"byteOffset":12220,
			"target":34962
		},
		{
			"buffer":0,
			"byteLength":288,
			"byteOffset":12508,
			"target":34962
		},
		{
			"buffer":0,
			"byteLength":192,
			"byteOffset":12796,
			"target":34962
		},
		{
			"buffer":0,
			"byteLength":288,
			"byteOffset":12988,
			"target":34962
		},
		{
			"buffer":0,
			"byteLength":288,
			"byteOffset":13276,
			"target":34962
		},
		{
			"buffer":0,
			"byteLength":192,
			"byteOffset":13564,
			"target":34962
		}
	],
	"buffers":[
		{
			"byteLength":13756,
			"uri":"gallery.bin"
		}
	]
}
